<svg xmlns="http://www.w3.org/2000/svg" xml:space="preserve" width="3.93682in" height="152.516in" version="1.1" style="shape-rendering:geometricPrecision; text-rendering:geometricPrecision; image-rendering:optimizeQuality; fill-rule:evenodd; clip-rule:evenodd"
viewBox="0 0 3933.48 152386.56"
 xmlns:xlink="http://www.w3.org/1999/xlink"
 xmlns:xodm="http://www.corel.com/coreldraw/odm/2003">
 <defs>
  <style type="text/css">
   <![CDATA[
    .fil0 {fill:#7C2784}
   ]]>
  </style>
 </defs>
 <g id="Layer_x0020_1">
  <metadata id="CorelCorpID_0Corel-Layer"/>
  <path class="fil0" d="M-0 4193.13l3933.48 -4193.13 0 2048.15 -3933.48 4193.13 0 -2048.15zm0 146145.28l3933.48 -4193.13 0 2048.15 -3933.48 4193.13 0 -2048.15zm0 -4428.65l3933.48 -4193.13 0 2048.15 -3933.48 4193.13 0 -2048.15zm0 -4428.64l3933.48 -4193.13 0 2048.15 -3933.48 4193.13 0 -2048.15zm0 -4428.65l3933.48 -4193.13 0 2048.15 -3933.48 4193.13 0 -2048.15zm0 -4428.65l3933.48 -4193.13 0 2048.14 -3933.48 4193.13 0 -2048.15zm0 -4428.64l3933.48 -4193.13 0 2048.15 -3933.48 4193.13 0 -2048.14zm0 -4428.65l3933.48 -4193.13 0 2048.15 -3933.48 4193.13 0 -2048.15zm0 -4428.65l3933.48 -4193.13 0 2048.15 -3933.48 4193.13 0 -2048.15zm0 -4428.65l3933.48 -4193.13 0 2048.15 -3933.48 4193.13 0 -2048.15zm0 -4428.64l3933.48 -4193.13 0 2048.15 -3933.48 4193.13 0 -2048.15zm0 -4428.65l3933.48 -4193.13 0 2048.15 -3933.48 4193.13 0 -2048.15zm0 -4428.65l3933.48 -4193.13 0 2048.15 -3933.48 4193.13 0 -2048.15zm0 -4428.64l3933.48 -4193.13 0 2048.15 -3933.48 4193.13 0 -2048.14zm0 -4428.65l3933.48 -4193.13 0 2048.15 -3933.48 4193.13 0 -2048.15zm0 -4428.65l3933.48 -4193.13 0 2048.15 -3933.48 4193.13 0 -2048.15zm0 -4428.65l3933.48 -4193.13 0 2048.15 -3933.48 4193.13 0 -2048.15zm0 -4428.64l3933.48 -4193.13 0 2048.15 -3933.48 4193.13 0 -2048.15zm0 -4428.65l3933.48 -4193.13 0 2048.15 -3933.48 4193.13 0 -2048.15zm0 -4428.65l3933.48 -4193.13 0 2048.15 -3933.48 4193.13 0 -2048.15zm0 -4428.64l3933.48 -4193.13 0 2048.15 -3933.48 4193.13 0 -2048.15zm0 -4428.65l3933.48 -4193.13 0 2048.15 -3933.48 4193.13 0 -2048.15zm0 -4428.65l3933.48 -4193.13 0 2048.14 -3933.48 4193.13 0 -2048.15zm0 -4428.65l3933.48 -4193.13 0 2048.15 -3933.48 4193.13 0 -2048.15zm0 -4428.64l3933.48 -4193.13 0 2048.15 -3933.48 4193.13 0 -2048.15zm0 -4428.65l3933.48 -4193.13 0 2048.15 -3933.48 4193.13 0 -2048.15zm0 -4428.65l3933.48 -4193.13 0 2048.15 -3933.48 4193.13 0 -2048.15zm0 -4428.64l3933.48 -4193.13 0 2048.15 -3933.48 4193.13 0 -2048.15zm0 -4428.65l3933.48 -4193.13 0 2048.15 -3933.48 4193.13 0 -2048.15zm0 -4428.65l3933.48 -4193.13 0 2048.14 -3933.48 4193.13 0 -2048.15zm0 -4428.64l3933.48 -4193.13 0 2048.15 -3933.48 4193.13 0 -2048.14zm0 -4428.65l3933.48 -4193.13 0 2048.15 -3933.48 4193.13 0 -2048.15zm0 -4428.65l3933.48 -4193.13 0 2048.15 -3933.48 4193.13 0 -2048.15zm0 -4428.65l3933.48 -4193.13 0 2048.15 -3933.48 4193.13 0 -2048.15z"/>
 </g>
</svg>
