<!DOCTYPE svg PUBLIC "-//W3C//DTD SVG 1.1//EN" "http://www.w3.org/Graphics/SVG/1.1/DTD/svg11.dtd"><!-- Creator: CorelDRAW 2020 (64-Bit) -->
<svg xmlns="http://www.w3.org/2000/svg" xml:space="preserve" width="0.0891575in" height="2.48786in" version="1.1" style="shape-rendering:geometricPrecision; text-rendering:geometricPrecision; image-rendering:optimizeQuality; fill-rule:evenodd; clip-rule:evenodd" viewBox="0 0 89.16 2487.86" xmlns:xlink="http://www.w3.org/1999/xlink" xmlns:xodm="http://www.corel.com/coreldraw/odm/2003">
  <defs>
    <style type="text/css">
      <![CDATA[
        .fil0 {fill:#7C2784}
      ]]>
    </style>
  </defs>
  <g id="Layer_x0020_1">
    <metadata id="CorelCorpID_0Corel-Layer"/>
  <path class="fil0" d="M-0 5.44l5.44 -5.44 0 2.66 -5.44 5.44 0 -2.66zm0 189.77l5.44 -5.44 0 2.66 -5.44 5.44 0 -2.66zm0 -5.75l5.44 -5.44 0 2.66 -5.44 5.44 0 -2.66zm0 -5.75l5.44 -5.44 0 2.66 -5.44 5.44 0 -2.66zm0 -5.75l5.44 -5.44 0 2.66 -5.44 5.44 0 -2.66zm0 -5.75l5.44 -5.44 0 2.66 -5.44 5.44 0 -2.66zm0 -5.75l5.44 -5.44 0 2.66 -5.44 5.44 0 -2.66zm0 -5.75l5.44 -5.44 0 2.66 -5.44 5.44 0 -2.66zm0 -5.75l5.44 -5.44 0 2.66 -5.44 5.44 0 -2.66zm0 -5.75l5.44 -5.44 0 2.66 -5.44 5.44 0 -2.66zm0 -5.75l5.44 -5.44 0 2.66 -5.44 5.44 0 -2.66zm0 -5.75l5.44 -5.44 0 2.66 -5.44 5.44 0 -2.66zm0 -5.75l5.44 -5.44 0 2.66 -5.44 5.44 0 -2.66zm0 -5.75l5.44 -5.44 0 2.66 -5.44 5.44 0 -2.66zm0 -5.75l5.44 -5.44 0 2.66 -5.44 5.44 0 -2.66zm0 -5.75l5.44 -5.44 0 2.66 -5.44 5.44 0 -2.66zm0 -5.75l5.44 -5.44 0 2.66 -5.44 5.44 0 -2.66zm0 -5.75l5.44 -5.44 0 2.66 -5.44 5.44 0 -2.66zm0 -5.75l5.44 -5.44 0 2.66 -5.44 5.44 0 -2.66zm0 -5.75l5.44 -5.44 0 2.66 -5.44 5.44 0 -2.66zm0 -5.75l5.44 -5.44 0 2.66 -5.44 5.44 0 -2.66zm0 -5.75l5.44 -5.44 0 2.66 -5.44 5.44 0 -2.66zm0 -5.75l5.44 -5.44 0 2.66 -5.44 5.44 0 -2.66zm0 -5.75l5.44 -5.44 0 2.66 -5.44 5.44 0 -2.66zm0 -5.75l5.44 -5.44 0 2.66 -5.44 5.44 0 -2.66zm0 -5.75l5.44 -5.44 0 2.66 -5.44 5.44 0 -2.66zm0 -5.75l5.44 -5.44 0 2.66 -5.44 5.44 0 -2.66zm0 -5.75l5.44 -5.44 0 2.66 -5.44 5.44 0 -2.66zm0 -5.75l5.44 -5.44 0 2.66 -5.44 5.44 0 -2.66zm0 -5.75l5.44 -5.44 0 2.66 -5.44 5.44 0 -2.66zm0 -5.75l5.44 -5.44 0 2.66 -5.44 5.44 0 -2.66zm0 -5.75l5.44 -5.44 0 2.66 -5.44 5.44 0 -2.66zm0 -5.75l5.44 -5.44 0 2.66 -5.44 5.44 0 -2.66zm0 -5.75l5.44 -5.44 0 2.66 -5.44 5.44 0 -2.66z"/>
  </g>
</svg>
