<!DOCTYPE svg PUBLIC "-//W3C//DTD SVG 1.1//EN" "http://www.w3.org/Graphics/SVG/1.1/DTD/svg11.dtd">
<svg xmlns="http://www.w3.org/2000/svg" xml:space="preserve" width="0.0833307in" height="3.23333in" version="1.1" style="shape-rendering:geometricPrecision; text-rendering:geometricPrecision; image-rendering:optimizeQuality; fill-rule:evenodd; clip-rule:evenodd"
viewBox="0 0 83.33 3233.33"
 xmlns:xlink="http://www.w3.org/1999/xlink"
 xmlns:xodm="http://www.corel.com/coreldraw/odm/2003">
 <defs>
  <style type="text/css">
   <![CDATA[
    .fil0 {fill:#7C2784}
   ]]>
  </style>
 </defs>
 <g id="Layer_x0020_1">
  <metadata id="CorelCorpID_0Corel-Layer"/>
  <path class="fil0" d="M-1.67 88.97l83.34 -88.97 0 43.46 -83.34 88.97 0 -43.46zm0 3100.91l83.34 -88.97 0 43.46 -83.34 88.97 0 -43.46zm0 -93.96l83.34 -88.97 0 43.46 -83.34 88.97 0 -43.46zm0 -93.97l83.34 -88.97 0 43.46 -83.34 88.97 0 -43.46zm0 -93.96l83.34 -88.97 0 43.46 -83.34 88.97 0 -43.46zm0 -93.97l83.34 -88.97 0 43.46 -83.34 88.97 0 -43.46zm0 -93.97l83.34 -88.97 0 43.46 -83.34 88.97 0 -43.46zm0 -93.96l83.34 -88.97 0 43.46 -83.34 88.97 0 -43.46zm0 -93.97l83.34 -88.97 0 43.46 -83.34 88.97 0 -43.46zm0 -93.96l83.34 -88.97 0 43.46 -83.34 88.97 0 -43.46zm0 -93.97l83.34 -88.97 0 43.46 -83.34 88.97 0 -43.46zm0 -93.97l83.34 -88.97 0 43.46 -83.34 88.97 0 -43.46zm0 -93.96l83.34 -88.97 0 43.46 -83.34 88.97 0 -43.46zm0 -93.97l83.34 -88.97 0 43.46 -83.34 88.97 0 -43.46zm0 -93.96l83.34 -88.97 0 43.46 -83.34 88.97 0 -43.46zm0 -93.97l83.34 -88.97 0 43.46 -83.34 88.97 0 -43.46zm0 -93.97l83.34 -88.97 0 43.46 -83.34 88.97 0 -43.46zm0 -93.96l83.34 -88.97 0 43.46 -83.34 88.97 0 -43.46zm0 -93.97l83.34 -88.97 0 43.46 -83.34 88.97 0 -43.46zm0 -93.96l83.34 -88.97 0 43.46 -83.34 88.97 0 -43.46zm0 -93.97l83.34 -88.97 0 43.46 -83.34 88.97 0 -43.46zm0 -93.97l83.34 -88.97 0 43.46 -83.34 88.97 0 -43.46zm0 -93.96l83.34 -88.97 0 43.46 -83.34 88.97 0 -43.46zm0 -93.97l83.34 -88.97 0 43.46 -83.34 88.97 0 -43.46zm0 -93.96l83.34 -88.97 0 43.46 -83.34 88.97 0 -43.46zm0 -93.97l83.34 -88.97 0 43.46 -83.34 88.97 0 -43.46zm0 -93.96l83.34 -88.97 0 43.46 -83.34 88.97 0 -43.46zm0 -93.97l83.34 -88.97 0 43.46 -83.34 88.97 0 -43.46zm0 -93.97l83.34 -88.97 0 43.46 -83.34 88.97 0 -43.46zm0 -93.96l83.34 -88.97 0 43.46 -83.34 88.97 0 -43.46zm0 -93.97l83.34 -88.97 0 43.46 -83.34 88.97 0 -43.46zm0 -93.96l83.34 -88.97 0 43.46 -83.34 88.97 0 -43.46zm0 -93.97l83.34 -88.97 0 43.46 -83.34 88.97 0 -43.46zm0 -93.97l83.34 -88.97 0 43.46 -83.34 88.97 0 -43.46z"/>
 </g>
</svg>
