<!DOCTYPE svg PUBLIC "-//W3C//DTD SVG 1.1//EN" "http://www.w3.org/Graphics/SVG/1.1/DTD/svg11.dtd">
<!-- Creator: CorelDRAW 2020 (64-Bit) -->
<svg xmlns="http://www.w3.org/2000/svg" xml:space="preserve" width="1.5748in" height="1.5748in" version="1.1" style="shape-rendering:geometricPrecision; text-rendering:geometricPrecision; image-rendering:optimizeQuality; fill-rule:evenodd; clip-rule:evenodd"
viewBox="0 0 40.58 40.58"
 xmlns:xlink="http://www.w3.org/1999/xlink"
 xmlns:xodm="http://www.corel.com/coreldraw/odm/2003">
 <defs>
  <style type="text/css">
   <![CDATA[
    .fil3 {fill:none}
    .fil0 {fill:none;fill-rule:nonzero}
    .fil2 {fill:#FEFEFE;fill-rule:nonzero}
    .fil1 {fill:#8C2898;fill-rule:nonzero}
   ]]>
  </style>
    <clipPath id="id0" style="clip-rule:nonzero">
     <path d="M0.74 21.49c13.04,5.58 26.07,5.92 39.11,0.03 0.03,-0.41 0.04,-0.81 0.04,-1.22 0,-5.41 -2.19,-10.31 -5.74,-13.85 -3.55,-3.55 -8.44,-5.74 -13.85,-5.74 -5.41,0 -10.31,2.19 -13.85,5.74 -3.55,3.55 -5.74,8.44 -5.74,13.85 0,0.4 0.01,0.8 0.04,1.2z"/>
    </clipPath>
     <clipPath id="id1">
      <path d="M6.92 23.74c8.33,2.49 16.67,2.78 25,0.6l0 -19.81c-3.25,-2.4 -7.28,-3.83 -11.63,-3.83 -5.17,0 -9.87,2 -13.37,5.27l0 17.77z"/>
     </clipPath>
     <clipPath id="id2">
      <path d="M0.74 21.49c13.04,5.58 26.07,5.92 39.11,0.03 0.03,-0.41 0.04,-0.81 0.04,-1.22 0,-5.41 -2.19,-10.31 -5.74,-13.85 -3.55,-3.55 -8.44,-5.74 -13.85,-5.74 -5.41,0 -10.31,2.19 -13.85,5.74 -3.55,3.55 -5.74,8.44 -5.74,13.85 0,0.4 0.01,0.8 0.04,1.2z"/>
     </clipPath>
 </defs>
 <g id="Layer_x0020_1">
  <metadata id="CorelCorpID_0Corel-Layer"/>
  <g id="_1786155544368">
   <g>
   </g>
   <g style="clip-path:url(#id0)">
    <g id="_1786155544032">
    </g>
    <g style="clip-path:url(#id1)">
     <image x="6.92" y="-0.25" width="25" height="33.4" xlink:href="https://ik.imagekit.io/moearchive/calendar/nogi31/itouriria.png"/>
    </g>
    <g style="clip-path:url(#id2)">
    </g>
   </g>
   <path class="fil0" d="M0.74 21.49c13.04,5.58 26.07,5.92 39.11,0.03 0.03,-0.41 0.04,-0.81 0.04,-1.22 0,-5.41 -2.19,-10.31 -5.74,-13.85 -3.55,-3.55 -8.44,-5.74 -13.85,-5.74 -5.41,0 -10.31,2.19 -13.85,5.74 -3.55,3.55 -5.74,8.44 -5.74,13.85 0,0.4 0.01,0.8 0.04,1.2z"/>
   <path class="fil1" d="M20.29 0c5.6,0 10.68,2.27 14.35,5.94 3.67,3.67 5.94,8.75 5.94,14.35 0,5.6 -2.27,10.68 -5.94,14.35 -3.67,3.67 -8.75,5.94 -14.35,5.94 -5.6,0 -10.68,-2.27 -14.35,-5.94 -3.67,-3.67 -5.94,-8.75 -5.94,-14.35 0,-5.6 2.27,-10.68 5.94,-14.35 3.67,-3.67 8.75,-5.94 14.35,-5.94zm-14.38 17.29c-0.12,0.57 -0.67,0.93 -1.24,0.81 -0.57,-0.12 -0.93,-0.67 -0.81,-1.24 0.34,-1.62 0.91,-3.18 1.7,-4.62 0.79,-1.44 1.79,-2.77 2.97,-3.93 0.41,-0.41 1.08,-0.4 1.48,0.01 0.41,0.41 0.4,1.07 -0.01,1.48 -1.04,1.02 -1.91,2.18 -2.6,3.44 -0.69,1.26 -1.19,2.62 -1.49,4.04zm6.14 -9.17c-0.48,0.32 -1.13,0.2 -1.45,-0.28 -0.32,-0.48 -0.2,-1.13 0.28,-1.45 0.22,-0.15 0.46,-0.3 0.7,-0.45 0.29,-0.18 0.53,-0.32 0.71,-0.42 0.51,-0.28 1.15,-0.09 1.42,0.42 0.28,0.51 0.09,1.15 -0.42,1.42 -0.27,0.15 -0.48,0.27 -0.63,0.36 -0.2,0.12 -0.41,0.25 -0.61,0.39zm-11.31 13.36c13.04,5.58 26.07,5.92 39.11,0.03 0.03,-0.41 0.04,-0.81 0.04,-1.22 0,-5.41 -2.19,-10.31 -5.74,-13.85 -3.55,-3.55 -8.44,-5.74 -13.85,-5.74 -5.41,0 -10.31,2.19 -13.85,5.74 -3.55,3.55 -5.74,8.44 -5.74,13.85 0,0.4 0.01,0.8 0.04,1.2z"/>
   <path class="fil2" d="M4.99 23.95l2.02 0.74c0.53,0.22 0.95,0.61 1.24,1.17 0.24,0.4 0.39,0.86 0.45,1.36l0.31 0.11 0 0.68 -0.3 -0.11c-0.04,0.49 -0.2,0.84 -0.46,1.05 -0.33,0.29 -0.78,0.35 -1.36,0.18l-0.17 -0.06c-0.24,1.01 -0.9,1.5 -1.98,1.49l-0.01 -0.79c0.7,0.03 1.14,-0.29 1.33,-0.94l-1.1 -0.4 0 -0.69 1.21 0.44c0,-0.07 0.01,-0.13 0.01,-0.2l0 -1 -1.53 -0.56 0 -0.68 1.53 0.56 0 -1.19 -1.19 -0.44 0 -0.72zm1.83 1.39l0 1.19 1.21 0.45c-0.04,-0.28 -0.12,-0.53 -0.25,-0.76 -0.18,-0.37 -0.46,-0.65 -0.82,-0.82l-0.14 -0.05zm0 1.87l0 1.12c-0,0.03 -0.01,0.06 -0.01,0.08l0.07 0.02c0.39,0.1 0.69,0.03 0.89,-0.19 0.14,-0.13 0.23,-0.33 0.27,-0.59l-1.21 -0.45zm-3.09 -1.28c-0.2,0.2 -0.41,0.36 -0.64,0.47l0 -0.96c0.46,-0.38 0.82,-1.02 1.05,-1.92l0.66 0.24c-0.11,0.45 -0.25,0.84 -0.41,1.18l0 5.41 -0.66 -0.24 0 -4.18zm6.44 0l1.36 0.26 0 -0.33 0.69 0.13 0 0.33 1.83 0.35 0 -0.37 0.69 0.13 0 0.37 1.32 0.25 0 0.66 -1.32 -0.25 0 0.32 -0.69 -0.13 0 -0.32 -1.83 -0.35 0 0.32 -0.69 -0.13 0 -0.32 -1.36 -0.26 0 -0.66zm1.23 1.38c0.4,0.13 0.61,0.4 0.64,0.81 0.07,0.44 0.11,1.11 0.11,1.99 0,0.74 -0.01,1.27 -0.03,1.6 0,0.56 -0.19,0.81 -0.57,0.76 -0.17,-0.04 -0.34,-0.08 -0.51,-0.13l0 -0.63c0.13,0.04 0.25,0.07 0.37,0.09 0.09,-0 0.13,-0.07 0.14,-0.22 0.01,-0.29 0.02,-0.57 0.02,-0.84l-0.68 -0.13c-0.03,0.84 -0.08,1.41 -0.15,1.7l-0.58 -0.11c0.12,-0.67 0.19,-1.65 0.2,-2.95l0 -2.15 1.03 0.2zm-0.48 2.69l0.66 0.13c0,-0.03 0,-0.05 0,-0.08 0,-0.25 -0,-0.49 -0.01,-0.71l-0.64 -0.12 0 0.14c-0,0.22 -0.01,0.43 -0.01,0.64zm0.01 -1.42l0.62 0.12c-0.01,-0.2 -0.02,-0.39 -0.04,-0.58 0,-0.13 -0.08,-0.21 -0.23,-0.26l-0.34 -0.07 0 0.79zm1.8 -0.89l0.61 0.12c0.05,0.17 0.09,0.35 0.12,0.51l0.38 0.07c0.05,-0.18 0.09,-0.37 0.11,-0.58l0.57 0.11c-0.02,0.21 -0.05,0.4 -0.09,0.58l0.41 0.08c0.07,-0.16 0.13,-0.32 0.18,-0.48l0.61 0.12c-0.06,0.18 -0.12,0.34 -0.19,0.48l0.49 0.09 0 0.58 -0.99 -0.19c0.05,0.16 0.11,0.3 0.18,0.44l0.96 0.18 0 0.61 -0.52 -0.1c0.16,0.2 0.35,0.39 0.57,0.56l-0.01 0.68c-0.15,-0.11 -0.3,-0.21 -0.43,-0.33l0 0.25c-0.25,-0.04 -0.56,-0.07 -0.93,-0.1l0 -0.54c0.19,0 0.38,0.02 0.57,0.03 -0.18,-0.21 -0.34,-0.43 -0.48,-0.69l-1.15 -0.22c-0.19,0.2 -0.42,0.37 -0.67,0.5 0.29,0.06 0.52,0.12 0.69,0.17l0 0.53c-0.23,-0.07 -0.59,-0.15 -1.08,-0.25l0 -0.28c-0.08,0.03 -0.16,0.05 -0.24,0.07l0 -0.62c0.18,-0.07 0.35,-0.16 0.5,-0.27l-0.48 -0.09 0 -0.61 1.01 0.19c0.08,-0.11 0.15,-0.23 0.22,-0.37l-1.18 -0.23 0 -0.58 0.41 0.08c-0.04,-0.16 -0.08,-0.33 -0.14,-0.52zm1.8 1.82c-0.06,-0.14 -0.11,-0.28 -0.15,-0.44l-0.11 -0.02c-0.05,0.14 -0.11,0.26 -0.18,0.37l0.45 0.09zm-0.61 1.81c-0,-0.34 -0.01,-0.7 -0.01,-1.06l0.63 0.12c0,0.34 0.01,0.7 0.01,1.09 0.48,0.3 0.99,0.56 1.54,0.79l0 0.61c-0.56,-0.19 -1.07,-0.43 -1.54,-0.72 -0.01,0.24 -0.07,0.43 -0.16,0.56 -0.15,0.16 -0.3,0.23 -0.48,0.2l-0.75 -0.14 0 -0.62 0.51 0.1c0.17,0.03 0.25,-0.04 0.25,-0.22 0,-0.02 0,-0.05 0,-0.07 -0.35,0.04 -0.85,0.05 -1.5,0.03l0 -0.66c0.53,0.02 1.03,0.02 1.5,-0.01zm3.36 -1.72l0.7 -0.01 0 -1.81 -0.64 0.01 0 -0.71 2.04 -0.03 0 0.71 -0.73 0.01 0 1.81 0.7 -0.01 0 0.7 -0.7 0.01 0 1.78c0.24,-0.04 0.47,-0.1 0.71,-0.17l0 0.75c-0.54,0.14 -1.22,0.25 -2.02,0.33l0 -0.76c0.21,-0.01 0.43,-0.02 0.65,-0.05l0 -1.87 -0.7 0.01 0 -0.7zm2.98 -0.46l0 0.87 0.82 -0.01 0 -0.87 -0.82 0.01zm0.82 1.53l-1.47 0.02 0 -3.75 2.29 -0.03c1.01,-0.02 1.52,0.59 1.55,1.83 0,1.19 -0.43,1.83 -1.31,1.92l-0.38 0.01 0 0.57 1.5 -0.02 0 0.73 -1.5 0.02 0 0.68 1.68 -0.03 0 0.74 -3.94 0.06 0 -0.74 1.58 -0.02 0 -0.68 -1.45 0.02 0 -0.73 1.45 -0.02 0 -0.57zm0.68 -0.68l0.28 -0c0.42,-0.08 0.66,-0.37 0.72,-0.89l-1.01 0.02 0 0.87zm1.01 -1.55c-0.07,-0.61 -0.36,-0.91 -0.88,-0.91l-0.14 0 0 0.92 1.01 -0.02zm-1.7 -0.89l-0.82 0.01 0 0.92 0.82 -0.01 0 -0.92zm4.86 3.24c0.66,0.06 1.24,0.15 1.76,0.27 1.28,-1.06 1.96,-2.36 2.05,-3.92 0,-0.13 -0.08,-0.18 -0.25,-0.15l-2.65 0.51c-0.38,1.26 -1.09,2.32 -2.14,3.18l0 -0.87c1,-1 1.56,-2.17 1.7,-3.51l0.71 -0.13c-0.02,0.19 -0.05,0.38 -0.08,0.56l2.81 -0.54c0.4,-0.01 0.6,0.19 0.6,0.59 0,1.82 -0.68,3.32 -2.05,4.49 0.31,0.11 0.58,0.24 0.82,0.39l0 0.93c-0.99,-0.57 -2.08,-0.91 -3.28,-1.02l0 -0.79zm5.83 -5.02l2.51 -0.92 0 -0.59 0.66 -0.24 0 0.59 2.51 -0.92 0 0.72 -1.33 0.49c0.32,0.7 0.77,1.16 1.34,1.37l0 0.85c-0.88,-0.24 -1.55,-0.89 -2.02,-1.97l-0.5 0.18 0 2.39 -0.66 0.24 0 -2.39 -0.5 0.18c-0.24,1.27 -0.92,2.42 -2.02,3.42l0 -0.81c0.72,-0.76 1.18,-1.55 1.36,-2.37l-1.35 0.49 0 -0.72zm4.29 1.74c0.84,-0.28 1.25,0.03 1.25,0.93 0,0.83 -0.36,1.41 -1.08,1.74l-3.9 1.43 0 -2.73 3.73 -1.37zm-3.09 3.14l3.13 -1.14c0.34,-0.13 0.52,-0.42 0.52,-0.86 0,-0.45 -0.19,-0.6 -0.57,-0.46l-3.07 1.13 0 1.33z"/>
   <path class="fil3" d="M1.87 28.6c12.29,5.79 24.59,5.77 36.88,0"/>
  </g>
 </g>
</svg>
